<svg width="242" height="62" viewBox="0 0 242 62" fill="none" xmlns="http://www.w3.org/2000/svg">


<g class="anima-global anima-botao">
  <!-- Fundo Botao -->
  <path d="M96.8066 9.32866C96.5776 9.53093 96.2315 9.5443 95.939 9.45403C95.9039 9.44233 95.8671 9.42896 95.8437 9.40221C95.812 9.36711 95.8036 9.3203 95.8003 9.2735C95.7551 8.72521 96.2516 8.10169 96.8283 8.52963C97.074 8.71183 97.0373 9.12807 96.8066 9.32866ZM95.7635 5.9453C95.9658 5.64273 96.3954 5.54076 96.7364 5.67115L96.6478 5.66781C96.6795 5.68285 96.708 5.70291 96.7347 5.72631C96.8283 5.81491 96.8751 5.94697 96.8902 6.07568C96.9186 6.31305 96.8434 6.56714 96.6712 6.7343C96.4973 6.89979 96.2265 6.96499 96.0059 6.87138C95.6699 6.72929 95.5629 6.24953 95.7635 5.9453ZM93.6572 9.60782C93.4466 9.75158 93.1524 9.74991 92.9318 9.62287C92.8682 9.58609 92.8097 9.53762 92.7679 9.47744C92.6426 9.29189 92.7211 9.02108 92.8883 8.86897C93.0555 8.71852 93.2861 8.66001 93.5085 8.62324L93.2728 8.60986C93.5168 8.53798 93.7993 8.69512 93.8863 8.93583C93.9732 9.17487 93.8679 9.46406 93.6572 9.60782M92.7278 6.29132C92.8682 6.02219 93.2276 5.89682 93.5035 6.01885C93.4851 5.96368 93.4734 5.90518 93.4683 5.84834C93.4399 5.84333 93.3329 5.84667 93.3129 5.85001C94.1922 5.62602 93.9849 7.73059 92.9435 7.08534C92.686 6.92654 92.5857 6.55711 92.7278 6.29132ZM100.009 3.82066C98.8159 2.34629 96.9888 1.34833 94.9778 1.11096C94.8157 1.09257 94.6535 1.07585 94.4914 1.08254C94.2741 1.09257 94.0618 1.14439 93.8495 1.19621C92.7629 1.462 91.8268 1.79465 90.869 2.39811C90.0248 2.92801 89.2659 3.64013 88.8329 4.53946C88.5989 5.0259 88.4668 5.55414 88.3732 6.08571C88.2144 6.98839 88.1676 7.90945 88.2311 8.82383C88.2646 9.2852 88.3264 9.74991 88.4852 10.1845C88.644 10.6158 88.8948 11.0053 89.1472 11.3881C89.5267 11.9598 89.9262 12.5348 90.4812 12.9344C92.0709 14.0761 94.264 14.723 96.1864 14.2633C98.5367 13.7033 100.27 12.1922 101.026 9.87361C101.694 7.82253 101.378 5.51736 100.009 3.82066Z" fill="#E7A29F"/>




  <!-- contorno botao -->
  <g opacity="0.160004">
  <path d="M92.2725 13.9299C93.5463 14.2509 94.8317 14.3445 96.1222 14.062C97.3024 13.8029 98.389 13.273 99.2983 12.4723C100.137 11.7351 100.784 10.7254 101.094 9.65224C101.448 8.42861 101.415 7.06623 101.177 5.82087C101.06 5.20739 100.878 4.56381 100.554 4.0222C100.266 3.54245 99.7948 3.01421 99.2699 2.79356C99.2198 2.7735 99.178 2.84037 99.203 2.88216C99.4638 3.32848 99.7597 3.71964 99.9636 4.20107C100.163 4.66745 100.353 5.12548 100.475 5.62195C100.739 6.7085 100.821 7.95219 100.609 9.05212C100.194 11.1935 98.4475 12.8618 96.4231 13.5421C95.1176 13.9801 93.6432 14.0804 92.2808 13.8948C92.2591 13.8931 92.2491 13.9249 92.2725 13.9299Z" fill="#8B305B"/>
  <path d="M100.901 6.86375C100.901 7.11282 100.886 7.36858 100.907 7.61598C100.909 7.64941 100.958 7.64941 100.961 7.61598C100.981 7.36858 100.966 7.11282 100.968 6.86375C100.968 6.82196 100.901 6.82196 100.901 6.86375Z" fill="#8B305B"/>
  <path d="M93.5401 14.1795C94.6818 14.6074 96.1077 14.2882 97.1959 13.8452C97.7643 13.6128 98.3042 13.3186 98.8007 12.9609C99.3373 12.5714 99.6799 12.1401 100.029 11.5868C100.058 11.5417 99.9959 11.4999 99.9591 11.5333C99.5278 11.9211 99.0146 12.2822 98.5399 12.6216C98.0434 12.9759 97.5018 13.2735 96.9318 13.4925C96.3952 13.6998 95.8369 13.8502 95.2702 13.9455C94.6951 14.0424 94.1134 14.0525 93.5401 14.1394C93.5167 14.1427 93.5217 14.1728 93.5401 14.1795Z" fill="#8B305B"/>
  <path d="M97.479 3.92448C97.2534 3.65702 97.0427 3.42467 96.7301 3.26252C96.4192 3.10371 96.1033 2.98837 95.7606 2.92318C95.0886 2.79613 94.4016 2.81285 93.7346 2.94992C92.4073 3.22574 91.1553 4.08329 90.4515 5.24339C89.7361 6.42523 89.5388 7.92301 89.9567 9.24359C90.3964 10.6377 91.4996 11.6842 92.8419 12.2124C93.5624 12.4949 94.4417 12.5835 95.1856 12.3445C95.6285 12.2007 96.0866 12.1422 96.5179 11.9583C96.9274 11.7845 97.357 11.5972 97.7181 11.3331C97.7315 11.3231 97.7197 11.3047 97.703 11.3097C97.0093 11.6106 96.3156 11.8914 95.5466 11.9366C94.9265 11.9734 94.2712 11.7644 93.6811 11.5972C92.526 11.2713 91.5097 10.6127 90.958 9.51439C90.4231 8.44957 90.3897 7.134 90.8393 6.03407C91.2823 4.94752 92.2485 4.07326 93.3284 3.64532C93.9452 3.40126 94.6022 3.24079 95.2691 3.26085C95.9996 3.28425 96.8522 3.50323 97.4172 3.98466C97.4606 4.02144 97.5141 3.96627 97.479 3.92448Z" fill="#8B305B"/>
  <path d="M93.7326 5.73906C93.2344 5.271 92.4789 5.54849 92.2281 6.14025C92.0041 6.67183 92.3334 7.60794 93.0489 7.3388C93.084 7.32543 93.1057 7.26525 93.0606 7.24519C92.6594 7.07134 92.3719 6.66347 92.5959 6.22717C92.7998 5.82766 93.2812 5.7424 93.6841 5.82264C93.7309 5.831 93.771 5.77416 93.7326 5.73906Z" fill="#8B305B"/>
  <path d="M93.58 8.63014C93.3259 8.46465 93.0685 8.39946 92.776 8.50979C92.5085 8.60841 92.3029 8.84913 92.2344 9.12327C92.1708 9.37903 92.2377 9.66488 92.4383 9.84374C92.5988 9.9875 92.8562 10.0527 93.0334 9.89891C93.0585 9.87718 93.0484 9.83706 93.0234 9.82034C92.7726 9.66321 92.4701 9.4459 92.6372 9.10823C92.791 8.79229 93.234 8.70202 93.5533 8.72543C93.6084 8.73044 93.6185 8.65689 93.58 8.63014Z" fill="#8B305B"/>
  <path d="M96.8123 5.77981C96.5114 5.25826 95.6772 5.38196 95.3847 5.845C95.0621 6.35652 95.3095 7.12547 95.943 7.194C96.0115 7.20236 96.0517 7.10039 96.0015 7.05693C95.7424 6.83628 95.5268 6.3933 95.7006 6.06566C95.9062 5.68453 96.4127 5.68118 96.7604 5.83163C96.7939 5.84667 96.834 5.81491 96.8123 5.77981Z" fill="#8B305B"/>
  <path d="M97.0382 8.60558C96.856 8.35818 96.6304 8.17764 96.3111 8.15925C95.955 8.14087 95.6257 8.34648 95.4485 8.65071C95.2797 8.94157 95.2513 9.35948 95.5204 9.60354C95.7411 9.8058 96.0353 9.83756 96.296 9.70885C96.3395 9.68712 96.3194 9.61357 96.271 9.61524C95.7929 9.647 95.6725 9.0168 95.9734 8.73596C96.2225 8.50361 96.7173 8.46015 97.0031 8.64068C97.0232 8.65573 97.055 8.62731 97.0382 8.60558Z" fill="#8B305B"/>
  </g>


  <g opacity="0.279999">
  <path d="M90.893 10.1628C90.6138 9.69646 90.4249 9.18829 90.3046 8.65838C90.0288 7.4381 90.2645 6.16933 90.9248 5.1112C90.9365 5.09114 90.9047 5.07275 90.893 5.09281C90.1959 6.11417 89.865 7.38628 90.0438 8.61659C90.1976 9.67473 90.8228 11.0304 91.8224 11.5302C91.8642 11.552 91.9277 11.5035 91.8943 11.4567C91.5683 11.017 91.1755 10.6359 90.893 10.1628Z" fill="#8B305B"/>
  <path d="M101.039 5.95934C101.033 5.9326 100.988 5.93761 100.991 5.96603C101.103 7.07432 101.177 8.20266 100.932 9.30092C100.779 9.98796 100.488 10.7118 100.092 11.3353C99.9445 11.479 99.7907 11.6178 99.6453 11.7582C99.2341 12.151 98.8078 12.5288 98.3398 12.8531C97.4204 13.4934 96.399 13.9531 95.2874 14.1319C95.264 14.1353 95.2707 14.1704 95.2924 14.1704C96.5077 14.2055 97.6611 13.7374 98.644 13.0403C99.1271 12.696 99.5935 12.3082 99.9947 11.8685C100.349 11.4757 100.698 11.0377 100.834 10.5212C100.983 10.1685 101.09 9.79739 101.165 9.42462C101.392 8.27956 101.309 7.09103 101.039 5.95934Z" fill="#8B305B"/>
  </g>

  <!-- segundo contorno -->
  <path d="M98.1076 13.5224C98.482 13.3017 98.8381 13.046 99.159 12.7568C99.48 12.4643 99.7759 12.1433 100.028 11.7906C100.538 11.0919 100.894 10.2895 101.09 9.457C101.474 7.79207 101.22 6.0051 100.363 4.54911C100.149 4.1847 99.9046 3.84035 99.6271 3.52274C99.3496 3.20513 99.042 2.91594 98.7094 2.65516C98.0441 2.13529 97.2751 1.74914 96.4594 1.52347C94.8279 1.06879 93.0175 1.26772 91.5114 2.09684C90.7625 2.51308 90.0838 3.07307 89.5539 3.75509C89.0206 4.43377 88.6328 5.22612 88.4138 6.06193C88.3069 6.47984 88.2433 6.90778 88.2216 7.33906C88.2032 7.76866 88.2283 8.19994 88.2935 8.62286C88.4255 9.47205 88.7264 10.2845 89.1661 11.0133C89.3834 11.3794 89.6375 11.7204 89.9166 12.0397C90.1975 12.3573 90.5084 12.6481 90.841 12.9089C90.9246 12.9758 91.0116 13.0343 91.0968 13.0995C91.1821 13.1613 91.274 13.2165 91.3609 13.2767C91.4495 13.3335 91.5415 13.3853 91.6317 13.4422C91.7237 13.4956 91.8189 13.5441 91.9109 13.5959C92.2903 13.7899 92.6848 13.9537 93.0961 14.0774C93.9135 14.3231 94.7878 14.4167 95.6486 14.3231C96.0799 14.2813 96.5062 14.1844 96.9191 14.0523C97.332 13.9186 97.7298 13.7364 98.1076 13.5224ZM98.1293 13.5592C97.7515 13.7798 97.3504 13.962 96.9375 14.1075C96.5246 14.2562 96.0966 14.3599 95.6637 14.4318C94.7944 14.5672 93.8934 14.5421 93.0259 14.3365C92.5929 14.2328 92.1683 14.0891 91.7638 13.8968C91.6635 13.8467 91.5615 13.7999 91.4629 13.7464C91.3659 13.6929 91.2673 13.6394 91.1704 13.5826C91.0767 13.5224 90.9798 13.4639 90.8879 13.4004C90.7959 13.3352 90.704 13.2733 90.6154 13.2048C89.8966 12.6665 89.2981 11.9695 88.8618 11.1888C88.4272 10.4048 88.1547 9.53724 88.0595 8.65462C88.0127 8.21332 88.0076 7.76699 88.0478 7.32735C88.0845 6.88605 88.1631 6.45142 88.2818 6.02683C88.5158 5.17597 88.9103 4.37192 89.4402 3.6665C89.5088 3.58124 89.574 3.49265 89.6458 3.40739C89.7177 3.32381 89.7879 3.23856 89.8631 3.15832C89.94 3.07809 90.0119 2.99618 90.0922 2.91761C90.1707 2.84239 90.2476 2.76215 90.3312 2.6886C90.6572 2.39105 91.0149 2.12526 91.3944 1.89625C92.1549 1.43822 93.0075 1.12061 93.8934 0.991899C94.7794 0.859841 95.6938 0.913332 96.563 1.139C97.4323 1.36467 98.258 1.76252 98.9785 2.30579C99.699 2.8474 100.302 3.5428 100.754 4.32345C101.197 5.10744 101.494 5.97835 101.596 6.871C101.611 6.983 101.616 7.09667 101.626 7.20867C101.635 7.32067 101.636 7.43267 101.641 7.54467C101.643 7.65666 101.638 7.76866 101.636 7.88066C101.631 7.99266 101.621 8.10466 101.615 8.21666C101.576 8.66298 101.486 9.10262 101.359 9.52888C101.101 10.3848 100.672 11.1771 100.12 11.8608C99.8411 12.2018 99.5368 12.5211 99.2008 12.8036C98.8682 13.0878 98.5088 13.3435 98.1293 13.5592Z" fill="#D09493"/>
  <path d="M90.737 5.03377C91.5394 3.94888 92.7764 3.52763 94.0151 3.16823C94.0535 3.15653 94.0435 3.10471 94.0067 3.10137C92.6377 2.97265 91.4408 3.96058 90.722 5.02541C90.7153 5.03377 90.7303 5.0438 90.737 5.03377Z" fill="#D09493"/>
  <path d="M90.4684 5.78715C89.4721 7.73961 89.8833 10.3975 91.8224 11.6245C91.8391 11.6362 91.8592 11.6094 91.8441 11.596C91.1002 10.9207 90.4918 10.1217 90.2143 9.1421C89.9 8.03548 90.0137 6.8503 90.5235 5.82058C90.5419 5.7838 90.4868 5.75037 90.4684 5.78715Z" fill="#D09493"/>
  <path d="M93.4396 12.2671C94.695 12.6332 96.0339 12.4777 97.194 11.8776C98.2722 11.3176 99.5928 10.2076 99.4858 8.87033C99.4825 8.82854 99.4273 8.83021 99.424 8.87033C99.307 10.1324 98.085 11.2474 97.0185 11.779C95.9236 12.3273 94.6431 12.5044 93.4446 12.2453C93.4312 12.242 93.4245 12.2637 93.4396 12.2671Z" fill="#D09493"/>
  <path d="M94.9578 3.07906C96.0477 3.07071 97.3164 3.53207 98.1773 4.19404C99.0616 4.87272 99.533 5.90411 99.4009 7.01574C99.3976 7.0358 99.4294 7.03747 99.4344 7.01908C99.7653 5.95927 99.1619 4.83594 98.3461 4.17231C97.4384 3.43679 96.1212 3.00886 94.9578 3.05399C94.9427 3.05566 94.9427 3.07906 94.9578 3.07906Z" fill="#D09493"/>
  <path d="M93.1596 5.79288C92.7132 5.8798 92.3973 6.35287 92.5695 6.78917C92.7383 7.21376 93.2498 7.35919 93.6293 7.11681C94.0004 6.88111 94.0656 6.3044 93.7563 5.9918C93.4788 5.71097 93.0024 5.70428 92.7952 6.05867C92.7768 6.0921 92.8202 6.12219 92.847 6.09879C93.0693 5.90488 93.4772 5.945 93.651 6.18404C93.86 6.46989 93.6995 6.89949 93.3668 6.98976C93.0476 7.07669 92.7316 6.84266 92.7366 6.50666C92.7417 6.19574 93.0292 6.05198 93.1813 5.82297C93.193 5.80625 93.1746 5.79121 93.1596 5.79288Z" fill="#D09493"/>
  <path d="M96.1919 5.58151C95.7456 5.66844 95.4296 6.14151 95.6018 6.5778C95.7707 7.00239 96.2822 7.14783 96.6633 6.90544C97.0327 6.66974 97.0996 6.09303 96.7887 5.77877C96.5129 5.4996 96.0348 5.49292 95.8292 5.84563C95.8091 5.88073 95.8526 5.91082 95.8793 5.88575C96.1016 5.69351 96.5112 5.73363 96.685 5.97267C96.894 6.25852 96.7335 6.68813 96.3992 6.7784C96.0816 6.86532 95.764 6.63129 95.7707 6.2953C95.7757 5.98438 96.0615 5.84062 96.2153 5.6116C96.2253 5.59489 96.2086 5.57817 96.1919 5.58151Z" fill="#D09493"/>
  <path d="M93.2298 8.47329C92.7834 8.56022 92.4675 9.03329 92.6397 9.46958C92.8085 9.8925 93.32 10.0396 93.7012 9.79722C94.0706 9.56152 94.1375 8.98481 93.8265 8.67055C93.5491 8.39138 93.0726 8.3847 92.8654 8.73741C92.847 8.77084 92.8904 8.8026 92.9172 8.77753C93.1395 8.58529 93.5491 8.62541 93.7229 8.86278C93.9302 9.1503 93.7697 9.57824 93.4371 9.67018C93.1194 9.7571 92.8018 9.52307 92.8085 9.18708C92.8135 8.87615 93.0994 8.7324 93.2532 8.50338C93.2632 8.48667 93.2465 8.46995 93.2298 8.47329Z" fill="#D09493"/>
  <path d="M96.2629 8.26177C95.8166 8.3487 95.5007 8.82177 95.6728 9.25639C95.8417 9.68098 96.3532 9.82809 96.7326 9.5857C97.1037 9.35 97.1689 8.77329 96.8597 8.45902C96.5822 8.17986 96.1058 8.17151 95.8985 8.52589C95.8801 8.55932 95.9236 8.58941 95.9503 8.56601C96.1726 8.37377 96.5805 8.41389 96.7544 8.65126C96.9633 8.93878 96.8028 9.36672 96.4702 9.45698C96.1509 9.54391 95.835 9.31155 95.84 8.97556C95.845 8.66463 96.1325 8.52088 96.2846 8.29019C96.2963 8.27515 96.278 8.25843 96.2629 8.26177Z" fill="#D09493"/>
</g>

<!-- Texto -->
<!-- a -->
<g class="anima-global anima-a">
  <path d="M16.2322 44.1055C17.9874 44.1055 19.5186 43.6659 20.8259 42.79C22.1314 41.9124 23.1561 40.7222 23.8966 39.2194C24.6372 37.7199 24.9882 36.0316 24.9498 34.1594C24.9498 32.2871 24.5987 30.6205 23.8966 29.1579C23.1945 27.6952 22.1999 26.5234 20.9128 25.6458C19.6256 24.7699 18.0844 24.3302 16.2907 24.3302C14.4185 24.3302 12.8188 24.7699 11.4932 25.6458C10.1676 26.5234 9.1529 27.7036 8.45082 29.1863C7.74874 30.669 7.3977 32.3457 7.3977 34.2179C7.3977 36.0516 7.74874 37.7199 8.45082 39.2194C9.1529 40.7222 10.1559 41.9124 11.4631 42.79C12.7703 43.6659 14.36 44.1055 16.2322 44.1055ZM14.4185 49.8392C11.5717 49.8392 9.11278 49.1371 7.04666 47.733C4.98053 46.3288 3.38914 44.4465 2.27751 42.0879C1.16588 39.7275 0.610901 37.1232 0.610901 34.2764C0.610901 31.3126 1.24445 28.6514 2.51321 26.291C3.7803 23.9307 5.59401 22.0585 7.95435 20.6727C10.313 19.2886 13.133 18.5965 16.4078 18.5965C19.6457 18.5965 22.4039 19.2886 24.6873 20.6727C26.9691 22.0585 28.7243 23.9307 29.9529 26.291C31.1799 28.6514 31.7967 31.2725 31.7967 34.1594V49.1371H25.0668V43.579H24.9498C24.3647 44.6722 23.6041 45.6952 22.6697 46.6497C21.7319 47.6076 20.5818 48.3765 19.2161 48.9616C17.8504 49.5467 16.2523 49.8392 14.4185 49.8392Z" fill="#009F9D"/>
  <path d="M14.4186 49.7758C16.5633 49.7624 18.7213 49.286 20.5233 48.1276C22.3203 46.9909 23.6861 45.2658 24.6238 43.4036L24.7191 43.218L24.9498 43.2097L25.0668 43.2047L25.4262 43.193L25.4396 43.5774C25.5048 45.4313 25.58 47.2834 25.6084 49.1373L25.0668 48.5956C27.3101 48.5455 29.5535 48.492 31.7968 48.5004L31.1599 49.1373C31.1599 45.4731 31.1047 41.8089 31.1515 38.1463C31.1448 36.3309 31.2368 34.4437 31.1432 32.6985C31.0211 30.9299 30.6317 29.1864 29.9663 27.5449C28.6692 24.2434 26.0447 21.4836 22.755 20.0443C19.4552 18.6335 15.6221 18.4981 12.1067 19.262C8.5729 20.061 5.42523 22.3244 3.55301 25.3517C1.65572 28.3891 0.972022 32.0215 1.20772 35.577C1.28963 37.3573 1.62563 39.1226 2.23911 40.7959C2.82251 42.4792 3.67838 44.0772 4.8435 45.4446C6.01197 46.7987 7.44455 47.9738 9.10447 48.7093C10.7677 49.4365 12.5965 49.7524 14.4186 49.7758ZM14.4186 49.9012C10.7393 50.0132 7.00324 48.5639 4.41557 45.8325C1.77942 43.1361 0.360207 39.3934 0.102777 35.6472C-0.163011 31.9179 0.662771 27.9845 2.86932 24.8987C5.03574 21.8012 8.39571 19.6565 12.0164 18.8692C15.6305 18.1203 19.4602 18.1704 22.989 19.4743C26.4894 20.8316 29.4047 23.6567 30.9292 27.1286C31.7266 28.8488 32.1679 30.726 32.3317 32.6066C32.4638 34.5189 32.4002 36.2992 32.4403 38.1463C32.4872 41.8089 32.432 45.4731 32.432 49.1373V49.7708L31.7968 49.7725C29.5535 49.7808 27.3101 49.7273 25.0668 49.6772L24.5185 49.6655L24.5252 49.1373C24.5536 47.2834 24.6288 45.4313 24.694 43.5774L25.0668 43.9519L24.9498 43.9469L25.2758 43.7513C24.1391 45.6452 22.6162 47.3386 20.6821 48.3917C19.7276 48.9199 18.7146 49.3546 17.6498 49.5869C16.5867 49.8293 15.4984 49.9146 14.4186 49.9012Z" fill="#008A87"/>
  <path d="M16.2322 44.1684C14.9902 44.1784 13.7348 44.0079 12.5413 43.5749C11.3461 43.137 10.2662 42.3881 9.36856 41.4486C7.56488 39.538 6.74912 36.855 6.72906 34.2774C6.69062 31.7014 7.4278 29.0034 9.15626 26.9673C10.0121 25.9543 11.0887 25.1453 12.3106 24.6287C13.5276 24.1038 14.8515 23.9551 16.1202 23.9902C17.3957 24.0086 18.6695 24.2844 19.8346 24.8009C20.998 25.3358 21.991 26.1566 22.8368 27.0994C24.4851 29.0268 25.4028 31.5827 25.468 34.1386C25.6167 36.6811 24.8294 39.4243 23.0257 41.3099C21.2822 43.2623 18.7113 44.2185 16.2322 44.1684ZM16.2322 44.043C17.4592 44.038 18.7012 43.7906 19.7661 43.2005C20.8275 42.6171 21.7302 41.7746 22.4156 40.8134C23.7729 38.8526 24.4416 36.5441 24.4299 34.1503C24.5268 31.7799 24.0605 29.2708 22.5025 27.3769C21.0181 25.4244 18.524 24.4599 16.1286 24.6755C14.9284 24.7407 13.7599 25.0283 12.7218 25.5348C11.6904 26.0463 10.7844 26.8236 10.0673 27.7162C8.63137 29.5383 8.06302 31.9254 8.06636 34.2723C8.0463 36.6193 8.6414 38.988 10.0038 40.9221C10.6891 41.8799 11.6052 42.7057 12.68 43.2556C13.7633 43.8106 15.0053 44.0296 16.2322 44.043Z" fill="#008A87"/>
</g>


<!-- m -->
<g class="anima-global anima-m">
  <path d="M37.5291 49.1367V31.2922C37.5291 28.992 38.074 26.8757 39.1656 24.9433C40.2589 23.0143 41.8385 21.473 43.9047 20.323C45.9725 19.1729 48.4481 18.5962 51.3367 18.5962C52.7409 18.5962 54.0849 18.7717 55.372 19.1227C56.6608 19.4738 57.8594 20.0304 58.9693 20.791C60.0826 21.5516 61.0271 22.4961 61.8094 23.6278H61.8663C62.6452 22.4961 63.5931 21.5516 64.7064 20.791C65.8163 20.0304 67.0249 19.4738 68.3338 19.1227C69.6393 18.7717 70.995 18.5962 72.3975 18.5962C75.3228 18.5962 77.8119 19.1729 79.858 20.323C81.9057 21.473 83.4754 23.0143 84.5669 24.9433C85.6602 26.8757 86.2051 28.992 86.2051 31.2922V49.1367H79.5353V31.2922C79.5353 30.0067 79.2144 28.8349 78.5725 27.7834C77.9256 26.7303 77.0797 25.8911 76.0249 25.2676C74.9735 24.6441 73.7632 24.3298 72.3975 24.3298C71.0719 24.3298 69.8616 24.6441 68.7701 25.2676C67.6768 25.8911 66.8126 26.7303 66.169 27.7834C65.5221 28.8349 65.2028 30.0067 65.2028 31.2922V49.1367H58.5314V31.2922C58.5314 30.0067 58.1987 28.8349 57.5368 27.7834C56.8731 26.7303 56.0056 25.8911 54.934 25.2676C53.8609 24.6441 52.6623 24.3298 51.3367 24.3298C50.0094 24.3298 48.8109 24.6441 47.7377 25.2676C46.6645 25.8911 45.807 26.7303 45.1634 27.7834C44.5215 28.8349 44.1972 30.0067 44.1972 31.2922V49.1367H37.5291Z" fill="#009F9D"/>
  <path d="M37.574 49.0926L44.197 48.9539L44.0148 49.1361L43.8276 34.6632L43.7975 31.0324C43.8175 29.762 44.1953 28.4731 44.8874 27.3949C46.2247 25.2118 48.7656 23.7842 51.3516 23.8193C53.9426 23.7424 56.5135 25.1533 57.9311 27.3231C58.6699 28.3996 59.0979 29.7168 59.143 31.024L59.1631 34.6632L59.1881 49.1361L58.5329 48.4825L65.2026 48.4708L64.5373 49.1361L64.5975 34.6565L64.6176 31.0174C64.6577 29.7168 65.0639 28.3979 65.7877 27.313C67.1902 25.1031 69.7963 23.7541 72.3756 23.8127C74.9616 23.7491 77.5225 25.1934 78.8498 27.3782C79.5468 28.4581 79.9246 29.7503 79.948 31.0224L79.9196 34.6565L79.7775 49.1361L79.5351 48.8937L86.2049 48.9238L85.9926 49.1361C86.016 44.8818 86.0227 40.6275 85.9893 36.3716C85.9525 34.2553 86.0277 32.0922 85.899 30.0144C85.6951 27.9349 84.9362 25.9273 83.7426 24.2339C82.5508 22.5405 80.8791 21.2116 79.0153 20.3357C77.1464 19.4664 75.0636 19.1137 72.9907 19.0803C70.9229 19.0435 68.8351 19.3628 66.9645 20.1501C65.094 20.9525 63.4524 22.2614 62.3191 23.9414L62.1603 24.1787H61.8661H61.8109L61.5217 24.1804L61.3579 23.9414C60.2045 22.2748 58.568 20.9843 56.7091 20.1702C54.8519 19.3695 52.7658 19.0652 50.7063 19.1288C48.6419 19.1823 46.5774 19.5617 44.7353 20.4477C42.8881 21.3303 41.2566 22.6642 40.0815 24.3325C38.9046 26.0075 38.1691 27.9951 37.9618 30.0495C37.8264 32.1073 37.8816 34.2285 37.8264 36.3214L37.574 49.0926ZM37.4854 49.1812L37.2313 36.4535C37.228 34.2988 37.116 32.1658 37.2113 29.9809C37.3801 27.8011 38.1123 25.6548 39.3393 23.8227C40.5629 21.9755 42.3365 20.5363 44.3073 19.5634C46.2966 18.5855 48.5048 18.1642 50.6745 18.0873C52.8543 18.0038 55.081 18.2946 57.1437 19.1589C59.1915 20.0131 61.0169 21.4623 62.2639 23.3145L61.8109 23.0771H61.8661L61.4131 23.3145C62.6768 21.4724 64.5056 20.0365 66.5516 19.1789C68.6144 18.318 70.8394 18.0338 73.0158 18.1308C75.1839 18.2161 77.3838 18.6373 79.3613 19.6152C81.3221 20.5931 83.0539 22.0457 84.2725 23.8695C85.4895 25.6832 86.215 27.8078 86.3922 29.9692C86.5042 32.1373 86.4055 34.2352 86.4222 36.3716C86.3888 40.6275 86.3955 44.8818 86.4189 49.1361L86.4206 49.3484L86.2049 49.3501L79.5351 49.3785L79.2944 49.3801L79.2928 49.1361L79.1523 34.6565L79.1139 31.0508C79.0704 29.9107 78.7227 28.8058 78.0925 27.868C76.8522 25.9423 74.6573 24.7554 72.3789 24.8474C70.1172 24.8374 67.9424 26.0526 66.7506 27.9349C66.1438 28.8676 65.8228 29.9425 65.7961 31.0558L65.8078 34.6565L65.8679 49.1361L65.8713 49.8031H65.2026L58.5329 49.7914L57.8776 49.7897V49.1361L57.901 34.6632L57.9127 31.0658C57.891 29.9626 57.5683 28.891 56.9615 27.9616C55.763 26.071 53.6183 24.819 51.3499 24.8407C49.0865 24.7655 46.8683 25.9557 45.6296 27.8714C44.9994 28.8125 44.6517 29.9174 44.6082 31.0591L44.5681 34.6632L44.3809 49.1361L44.3792 49.3233L44.197 49.32L37.4854 49.1812Z" fill="#008A87"/>
</g>

<!-- i -->
<g class="anima-global anima-i">
  <path d="M91.9391 19.2994H98.6674V49.138H91.9391V19.2994Z" fill="#009F9D"/>
  <path d="M91.9834 49.0926C94.322 48.984 96.5302 48.8051 98.6682 48.7316L98.262 49.1361C98.15 46.6504 98.1249 44.163 98.0514 41.6773C98.0079 39.1916 97.9862 36.7042 98.0012 34.2185C98.0664 29.2438 98.1015 24.2724 98.3239 19.2993L98.6682 19.642C96.4249 19.555 94.1816 19.5049 91.9383 19.4932L92.1338 19.2993C92.1372 21.7733 92.1907 24.249 92.2993 26.6895C92.4097 29.1301 92.4648 31.5573 92.4565 34.0029L92.2993 41.4316C92.2158 43.9407 92.1255 46.4715 91.9834 49.0926ZM91.8948 49.1812C91.751 46.8293 91.6624 44.387 91.5772 41.9214L91.4217 34.4325C91.4134 31.9067 91.4669 29.3608 91.5772 26.8283C91.6875 24.2958 91.7393 21.7967 91.7427 19.2993L91.7444 19.1054L91.9383 19.1037C94.1816 19.0937 96.4249 19.0419 98.6682 18.9566L98.9942 18.9432L99.0109 19.2993C99.2332 24.2724 99.2683 29.2438 99.3335 34.2185C99.3486 36.7042 99.3268 39.1916 99.2834 41.6773C99.2098 44.163 99.1848 46.6504 99.0728 49.1361L99.0527 49.554L98.6682 49.5423C96.3196 49.4688 94.0412 49.2899 91.8948 49.1812" fill="#008A87"/>
</g>

<!-- m -->
<g class="anima-global anima-m2">
  <path d="M103.471 49.1367V31.2922C103.471 28.992 104.016 26.8757 105.107 24.9433C106.201 23.0143 107.78 21.473 109.848 20.323C111.916 19.1729 114.392 18.5962 117.279 18.5962C118.683 18.5962 120.028 18.7717 121.316 19.1227C122.603 19.4738 123.801 20.0304 124.913 20.791C126.025 21.5516 126.971 22.4961 127.751 23.6278H127.81C128.589 22.4961 129.537 21.5516 130.648 20.791C131.76 20.0304 132.968 19.4738 134.276 19.1227C135.581 18.7717 136.937 18.5962 138.341 18.5962C141.266 18.5962 143.754 19.1729 145.8 20.323C147.849 21.473 149.417 23.0143 150.51 24.9433C151.602 26.8757 152.149 28.992 152.149 31.2922V49.1367H145.479V31.2922C145.479 30.0067 145.156 28.8349 144.514 27.7834C143.869 26.7303 143.022 25.8911 141.968 25.2676C140.915 24.6441 139.707 24.3298 138.341 24.3298C137.014 24.3298 135.805 24.6441 134.714 25.2676C133.62 25.8911 132.754 26.7303 132.111 27.7834C131.466 28.8349 131.145 30.0067 131.145 31.2922V49.1367H124.475V31.2922C124.475 30.0067 124.142 28.8349 123.48 27.7834C122.817 26.7303 121.949 25.8911 120.876 25.2676C119.804 24.6441 118.604 24.3298 117.279 24.3298C115.953 24.3298 114.753 24.6441 113.68 25.2676C112.608 25.8911 111.749 26.7303 111.105 27.7834C110.463 28.8349 110.141 30.0067 110.141 31.2922V49.1367H103.471Z" fill="#009F9D"/>
  <path d="M103.515 49.0926L110.141 48.9539L109.957 49.1361L109.77 34.6632L109.74 31.0324C109.762 29.762 110.136 28.4731 110.83 27.3933C112.167 25.2118 114.706 23.7826 117.294 23.8193C119.885 23.7424 122.456 25.1533 123.874 27.3231C124.613 28.3979 125.04 29.7168 125.087 31.024L125.107 34.6632L125.131 49.1361L124.475 48.4825L131.144 48.4708L130.478 49.1361L130.54 34.6565L130.56 31.0174C130.599 29.7168 131.005 28.3996 131.729 27.313C133.134 25.1031 135.737 23.7541 138.318 23.8127C140.904 23.7491 143.465 25.1917 144.791 27.3782C145.488 28.4581 145.867 29.7503 145.891 31.0224L145.862 34.6565L145.722 49.1361L145.479 48.8937L152.149 48.9238L151.935 49.1361C151.959 44.8818 151.965 40.6275 151.932 36.3716C151.895 34.2553 151.97 32.0922 151.842 30.0144C151.636 27.9366 150.879 25.9273 149.685 24.2339C148.493 22.5405 146.822 21.2116 144.958 20.3374C143.089 19.4664 141.008 19.1137 138.932 19.0803C136.866 19.0435 134.778 19.3628 132.907 20.1501C131.037 20.9508 129.397 22.2614 128.263 23.9414L128.103 24.1787H127.809H127.752L127.463 24.1804L127.299 23.9414C126.147 22.2748 124.511 20.9843 122.65 20.1702C120.795 19.3678 118.708 19.0652 116.649 19.1288C114.584 19.1823 112.518 19.5617 110.676 20.4477C108.829 21.3303 107.199 22.6642 106.022 24.3325C104.846 26.0075 104.112 27.9951 103.904 30.0495C103.769 32.1073 103.824 34.2285 103.767 36.3214L103.515 49.0926ZM103.426 49.1812L103.174 36.4535C103.169 34.2988 103.059 32.1658 103.152 29.9809C103.323 27.8012 104.053 25.6548 105.28 23.8227C106.504 21.9739 108.279 20.5363 110.248 19.5634C112.237 18.5855 114.446 18.1642 116.617 18.0873C118.797 18.0038 121.024 18.293 123.085 19.1589C125.132 20.0131 126.959 21.4624 128.207 23.3145L127.752 23.0771H127.809L127.356 23.3145C128.621 21.4724 130.448 20.0348 132.496 19.1789C134.557 18.318 136.782 18.0355 138.958 18.1308C141.126 18.2161 143.326 18.6373 145.304 19.6169C147.265 20.5931 148.996 22.0474 150.215 23.8695C151.434 25.6832 152.158 27.8078 152.335 29.9692C152.447 32.1373 152.348 34.2352 152.366 36.3716C152.331 40.6275 152.338 44.8818 152.363 49.1361V49.3484L152.149 49.3501L145.479 49.3785L145.239 49.3801L145.235 49.1361L145.095 34.6565L145.058 31.0508C145.013 29.9107 144.664 28.8075 144.033 27.868C142.795 25.9423 140.6 24.7555 138.322 24.8474C136.06 24.8357 133.885 26.0543 132.693 27.9349C132.088 28.8676 131.764 29.9442 131.737 31.0558L131.749 34.6565L131.811 49.1361L131.814 49.8031H131.144L124.475 49.7914L123.818 49.7897L123.82 49.1361L123.844 34.6632L123.855 31.0658C123.834 29.9626 123.513 28.8911 122.904 27.9616C121.706 26.071 119.561 24.819 117.292 24.8407C115.029 24.7655 112.811 25.9557 111.57 27.8714C110.942 28.8125 110.594 29.9174 110.551 31.0591L110.512 34.6632L110.325 49.1361L110.322 49.325L110.141 49.32L103.426 49.1812Z" fill="#008A87"/>
</g>

<!-- a -->
<g class="anima-global anima-a2">
  <path d="M171.807 44.1055C173.562 44.1055 175.093 43.6659 176.399 42.79C177.706 41.9124 178.731 40.7222 179.471 39.2194C180.212 37.7199 180.563 36.0316 180.524 34.1594C180.524 32.2871 180.173 30.6205 179.471 29.1579C178.769 27.6952 177.775 26.5234 176.487 25.6458C175.2 24.7699 173.657 24.3302 171.865 24.3302C169.993 24.3302 168.393 24.7699 167.068 25.6458C165.741 26.5234 164.728 27.7036 164.025 29.1863C163.323 30.669 162.972 32.3457 162.972 34.2179C162.972 36.0516 163.323 37.7199 164.025 39.2194C164.728 40.7222 165.731 41.9124 167.038 42.79C168.345 43.6659 169.935 44.1055 171.807 44.1055ZM169.993 49.8392C167.145 49.8392 164.687 49.1371 162.621 47.733C160.553 46.3288 158.964 44.4465 157.852 42.0879C156.741 39.7275 156.186 37.1232 156.186 34.2764C156.186 31.3126 156.819 28.6514 158.086 26.291C159.355 23.9307 161.169 22.0585 163.529 20.6727C165.888 19.2886 168.706 18.5965 171.981 18.5965C175.219 18.5965 177.978 19.2886 180.262 20.6727C182.544 22.0585 184.299 23.9307 185.526 26.291C186.755 28.6514 187.37 31.2725 187.37 34.1594V49.1371H180.641V43.579H180.524C179.939 44.6722 179.179 45.6952 178.243 46.6497C177.307 47.6076 176.156 48.3765 174.791 48.9616C173.425 49.5467 171.827 49.8392 169.993 49.8392Z" fill="#009F9D"/>
  <path d="M169.993 49.7759C172.136 49.7625 174.296 49.2861 176.098 48.1276C177.893 46.9909 179.261 45.2641 180.198 43.4036L180.292 43.2181L180.524 43.2097L180.641 43.2047L181.001 43.193L181.016 43.5775C181.081 45.4313 181.156 47.2835 181.183 49.1373L180.641 48.5957C182.885 48.5455 185.126 48.4921 187.37 48.5004L186.733 49.1373C186.734 45.4731 186.678 41.8089 186.724 38.1464C186.718 36.331 186.81 34.4437 186.716 32.6985C186.596 30.93 186.204 29.1865 185.539 27.5449C184.242 24.2435 181.618 21.4836 178.328 20.0444C175.028 18.6335 171.197 18.4981 167.68 19.262C164.147 20.0611 161 22.3244 159.128 25.3518C157.229 28.3891 156.545 32.0232 156.782 35.5771C156.864 37.3574 157.2 39.1226 157.814 40.7959C158.397 42.4792 159.251 44.079 160.416 45.4447C161.586 46.7987 163.019 47.9738 164.677 48.7094C166.341 49.4365 168.171 49.7525 169.993 49.7759ZM169.993 49.9012C166.314 50.0149 162.576 48.5639 159.99 45.8342C157.354 43.1362 155.935 39.3934 155.677 35.6473C155.412 31.9196 156.237 27.9862 158.442 24.8987C160.61 21.8029 163.969 19.6565 167.591 18.8692C171.205 18.1203 175.035 18.1721 178.562 19.4743C182.064 20.83 184.979 23.6567 186.504 27.1287C187.299 28.8488 187.741 30.726 187.905 32.6066C188.037 34.5189 187.973 36.2992 188.013 38.1464C188.06 41.8089 188.003 45.4731 188.005 49.1373V49.7708L187.37 49.7725C185.126 49.7809 182.885 49.7274 180.641 49.6772L180.093 49.6655L180.1 49.1373C180.126 47.2835 180.202 45.4313 180.267 43.5775L180.641 43.9519L180.524 43.9469L180.849 43.7513C179.712 45.6453 178.189 47.3386 176.255 48.3918C175.302 48.92 174.289 49.3546 173.224 49.587C172.163 49.8294 171.073 49.9146 169.993 49.9012Z" fill="#008A87"/>
  <path d="M171.807 44.1684C170.565 44.1784 169.309 44.0079 168.118 43.5749C166.921 43.137 165.841 42.3881 164.945 41.4486C163.139 39.538 162.324 36.855 162.304 34.2774C162.265 31.7014 163.002 29.0034 164.731 26.9673C165.585 25.9543 166.663 25.1453 167.884 24.6287C169.102 24.1038 170.426 23.9551 171.695 23.9902C172.97 24.0086 174.244 24.2844 175.409 24.8009C176.573 25.3358 177.566 26.1566 178.41 27.0977C180.06 29.0251 180.977 31.5827 181.043 34.1386C181.191 36.6812 180.406 39.4243 178.599 41.3099C176.857 43.2607 174.286 44.2185 171.807 44.1684ZM171.807 44.043C173.034 44.038 174.276 43.7906 175.341 43.2005C176.4 42.6154 177.303 41.7746 177.99 40.8117C179.348 38.8526 180.015 36.5424 180.004 34.1503C180.101 31.7799 179.635 29.2708 178.077 27.3769C176.593 25.4228 174.097 24.4599 171.703 24.6755C169.284 24.7725 167.064 25.8741 165.642 27.7162C164.206 29.5383 163.638 31.9254 163.641 34.2723C163.623 36.6193 164.216 38.988 165.577 40.9221C166.264 41.8799 167.178 42.7057 168.256 43.2556C169.336 43.8106 170.58 44.0296 171.807 44.043Z" fill="#008A87"/>
</g>

<!-- r -->
<g class="anima-global anima-r">
  <path d="M192.869 49.1367V27.7834C192.869 25.1306 193.617 23.0527 195.12 21.5516C196.621 20.0505 198.698 19.2983 201.35 19.2983H208.548V25.0319H202.581C201.645 25.0319 200.912 25.3061 200.386 25.851C199.859 26.3976 199.595 27.1382 199.595 28.0743V49.1367H192.869Z" fill="#009F9D"/>
  <path d="M192.913 49.0927C195.233 49.0075 197.449 48.8336 199.596 48.7751L199.233 49.1362C199.047 43.8271 198.947 38.5163 198.944 33.2073L198.937 29.2238C198.969 28.5685 198.892 27.9149 199.056 27.1108C199.213 26.3402 199.658 25.573 200.331 25.0899C201.012 24.5951 201.837 24.4329 202.573 24.4446L204.565 24.468L208.549 24.5499L208.066 25.0313L208.235 19.2993L208.549 19.6136C206.792 19.5601 205.035 19.5167 203.277 19.51C201.52 19.4816 199.753 19.403 198.126 19.9947C196.493 20.5163 195.122 21.6965 194.34 23.1675C193.529 24.6435 193.349 26.3553 193.394 28.0503C193.464 31.4972 193.372 34.9357 193.309 38.411C193.207 41.898 193.08 45.4252 192.913 49.0927ZM192.824 49.1813C192.658 45.8213 192.53 42.321 192.428 38.7805C192.364 35.2283 192.272 31.6409 192.343 28.0587C192.333 26.26 192.709 24.3644 193.7 22.7914C194.676 21.2083 196.266 20.0934 197.984 19.5618C199.719 19.0001 201.54 19.1288 203.277 19.087C205.035 19.082 206.792 19.0386 208.549 18.9851L208.852 18.975L208.862 19.2993L209.03 25.0313L209.044 25.5044L208.549 25.5144L204.565 25.5964L202.575 25.6198C201.991 25.6248 201.453 25.7669 201.06 26.0711C200.659 26.3787 200.396 26.8367 200.298 27.3666C200.194 27.8698 200.261 28.5568 200.254 29.2238L200.248 33.2073C200.244 38.5163 200.144 43.8271 199.958 49.1362L199.945 49.5089L199.596 49.4989C197.259 49.4404 194.989 49.2666 192.824 49.1813" fill="#008A87"/>
</g>

<!-- u -->
<g class="anima-global anima-u">
  <path d="M227.016 49.8387C224.127 49.8387 221.613 49.2636 219.469 48.1135C217.322 46.9635 215.666 45.3737 214.496 43.3444C213.325 41.3167 212.74 39.0349 212.74 36.5008V19.2981H219.469V36.4406C219.469 37.9634 219.808 39.2991 220.493 40.4491C221.175 41.5992 222.091 42.4952 223.242 43.1405C224.393 43.784 225.65 44.105 227.016 44.105C228.38 44.105 229.639 43.784 230.791 43.1405C231.939 42.4952 232.857 41.5992 233.539 40.4491C234.222 39.2991 234.563 37.9634 234.563 36.4406V19.2981H241.292V36.5008C241.292 39.0349 240.697 41.3167 239.508 43.3444C238.318 45.3737 236.66 46.9635 234.533 48.1135C232.409 49.2636 229.903 49.8387 227.016 49.8387Z" fill="#009F9D"/>
  <path d="M227.016 49.7759C230.249 49.7558 233.571 48.9367 236.098 46.8956C238.641 44.9148 240.285 41.9175 240.68 38.7866C240.892 37.2337 240.752 35.6172 240.753 33.974L240.675 29.0828L240.64 19.2988L241.292 19.9491L234.563 19.9591L235.222 19.2988L235.122 33.8804C235.077 35.1073 235.144 36.2741 235.001 37.5814C234.844 38.8535 234.373 40.1189 233.617 41.1603C232.136 43.2916 229.549 44.5203 227.016 44.4484C224.479 44.4467 221.974 43.1428 220.594 41.0366C219.877 40.0085 219.45 38.7832 219.32 37.5479C219.208 36.2959 219.297 35.1007 219.278 33.8804C219.258 29.0193 219.215 24.1599 219.101 19.2988L219.469 19.6682L212.74 19.7936L213.237 19.2988L213.297 29.0878L213.242 33.9823C213.254 35.6256 213.12 37.2437 213.33 38.8016C213.728 41.9376 215.35 44.9566 217.912 46.9224C220.457 48.9467 223.781 49.7591 227.016 49.7759ZM227.016 49.9012C223.753 49.9597 220.406 49.1406 217.705 47.2015C214.975 45.3093 213.105 42.2385 212.513 38.932C212.189 37.2587 212.274 35.5955 212.239 33.9823L212.184 29.0878L212.244 19.2988L212.247 18.794L212.74 18.804L219.469 18.9294L219.846 18.9377L219.838 19.2988C219.724 24.1599 219.679 29.0193 219.661 33.8804C219.689 35.0873 219.619 36.3293 219.739 37.4978C219.878 38.6763 220.293 39.8096 220.976 40.7725C222.329 42.7166 224.687 43.8299 227.016 43.7613C229.35 43.7563 231.621 42.5678 232.877 40.6488C233.52 39.6993 233.888 38.6044 234 37.4643C234.092 36.351 234 35.0789 234.005 33.8804L233.901 19.2988L233.898 18.6385H234.563L241.292 18.6485H241.945L241.944 19.2988L241.907 29.0828L241.83 33.974C241.785 35.5854 241.867 37.2487 241.537 38.9237C240.931 42.2385 239.03 45.2809 236.317 47.1898C233.627 49.1473 230.276 49.9631 227.016 49.9012Z" fill="#008A87"/>
</g>

<!-- Agulha -->
<g class="anima-global anima-agulha">
  <path d="M157.962 59.8977C163.368 59.0051 217.915 57.412 220.887 58.0122C224.147 58.0807 234.422 57.733 236.42 57.5274C238.416 57.3218 241.092 56.394 241.082 54.7408C241.068 53.0825 238.678 52.3855 236.413 52.4991C234.146 52.6128 234.511 53.3283 236.186 54.0003C237.859 54.6739 236.525 55.6836 234.795 55.7304C233.066 55.7755 224.646 55.1202 219.857 55.157C214.969 55.7504 159.659 56.7334 158.101 55.7538C156.645 54.8377 156.157 56.2068 156.167 57.6126C156.177 59.0168 156.416 60.1535 157.962 59.8977Z" fill="#CDCFCF"/>
  <path d="M157.962 59.8977C163.368 59.0051 217.915 57.412 220.887 58.0122C224.147 58.0807 234.422 57.733 236.42 57.5274C238.416 57.3218 241.092 56.394 241.082 54.7408C241.068 53.0825 238.678 52.3855 236.413 52.4991C234.146 52.6128 234.511 53.3283 236.186 54.0003C237.859 54.6739 236.525 55.6836 234.795 55.7304C233.066 55.7755 224.646 55.1202 219.857 55.157C214.969 55.7504 159.659 56.7334 158.101 55.7538C156.645 54.8377 156.157 56.2068 156.167 57.6126C156.177 59.0168 156.416 60.1535 157.962 59.8977Z" stroke="#ADADAE" stroke-width="0.333333" stroke-miterlimit="10"/>
  <path d="M159.038 54.9319C160.375 55.1091 193.52 57.1602 211.798 54.4388C212.764 54.295 213.683 55.2278 213.69 56.4564L213.698 58.0244C213.703 59.2497 212.246 59.7846 211.286 59.6358C194.695 57.0398 162.994 60.9665 159.068 60.9999C157.488 61.0133 156.176 59.8063 156.166 57.7603C156.156 55.7159 157.339 54.7046 159.038 54.9319Z" fill="#E7A29F"/>
  <path d="M159.038 54.9319C160.375 55.1091 193.52 57.1602 211.798 54.4388C212.764 54.295 213.683 55.2278 213.69 56.4564L213.698 58.0244C213.703 59.2497 212.246 59.7846 211.286 59.6358C194.695 57.0398 162.994 60.9665 159.068 60.9999C157.488 61.0133 156.176 59.8063 156.166 57.7603C156.156 55.7159 157.339 54.7046 159.038 54.9319Z" stroke="#D09493" stroke-width="0.333333" stroke-miterlimit="10"/>
</g>
</svg>
